<svg width="166" height="73" viewBox="0 0 166 73" fill="none" xmlns="http://www.w3.org/2000/svg">
<path fill-rule="evenodd" clip-rule="evenodd" d="M83.0104 65.6453C63.9815 65.6453 44.4915 58.3117 21.6694 42.5308L12.9094 36.479L21.6694 30.4272C44.4287 14.7092 63.9186 7.35461 83.0104 7.35461C102.102 7.35461 121.55 14.7092 144.33 30.4272L153.09 36.479L144.33 42.5308C121.508 58.3117 102.018 65.6453 83.0104 65.6453Z" fill="white"/>
<path d="M141.3 38.1222L143.671 36.477L141.298 34.8345C120.152 20.1977 101.667 12.7093 83.0105 12.7093C64.3972 12.7093 45.8492 20.1969 24.7017 34.8345L22.3239 36.4803L24.7028 38.1243C45.9091 52.7798 64.3947 60.2907 83.0105 60.2907C101.625 60.2907 120.174 52.7809 141.3 38.1222ZM18.6581 25.9989L18.6582 25.9989C42.4732 9.517 62.8897 2 83.0105 2C103.11 2 123.527 9.51685 147.363 25.9994L162.486 36.4776L147.364 46.9375C147.363 46.9376 147.363 46.9377 147.363 46.9377C123.461 63.4638 103.045 71 83.0105 71C62.9757 71 42.5594 63.4637 18.6574 46.9375L18.6568 46.9371L3.5166 36.4776L18.6581 25.9989Z" fill="black" stroke="black" stroke-width="4"/>
</svg>
