<svg xmlns="http://www.w3.org/2000/svg" viewBox="0 0 70.39 85.2"><defs><style>.cls-1{fill:#fff;}</style></defs><g id="Слой_2" data-name="Слой 2"><g id="Слой_1-2" data-name="Слой 1"><path class="cls-1" d="M66.49,55.5C64,67.6,55.69,76.7,44.19,80c-18.2,5.2-35-7.1-39.1-21.9a32,32,0,0,1,2.4-22.8,30.8,30.8,0,0,1,33.1-17l-6.8,16,32.5-6.5L48.29,0l-6.1,14.5a34.8,34.8,0,0,0-38.3,19,36.66,36.66,0,0,0-2.7,25.7c4,14,17.9,26,34.5,26a32.2,32.2,0,0,0,9.6-1.4c13-3.6,22.3-13.9,25.1-27.5Zm-17.4-47L59.69,25l-19.2,3.9Z"/></g></g></svg>