<svg xmlns="http://www.w3.org/2000/svg" viewBox="0 0 85 46.98"><defs><style>.cls-1{fill:#fff;}</style></defs><g id="Слой_2" data-name="Слой 2"><g id="Слой_1-2" data-name="Слой 1"><rect class="cls-1" y="7" width="1.61" height="3.56"/><rect class="cls-1" y="21.25" width="1.61" height="3.56"/><polygon class="cls-1" points="1.61 1.61 1.73 1.61 1.73 0 0 0 0 3.44 1.61 3.44 1.61 1.61"/><rect class="cls-1" y="14.13" width="1.61" height="3.56"/><rect class="cls-1" y="35.49" width="1.61" height="3.56"/><polygon class="cls-1" points="1.9 45.37 1.61 45.37 1.61 42.62 0 42.62 0 46.98 1.9 46.98 1.9 45.37"/><rect class="cls-1" y="28.37" width="1.61" height="3.56"/><polygon class="cls-1" points="83.39 46.18 83.81 46.18 83.81 46.98 85 46.98 85 43 83.39 43 83.39 46.18"/><rect class="cls-1" x="5.3" width="3.56" height="1.61"/><rect class="cls-1" x="12.58" y="45.37" width="3.56" height="1.61"/><rect class="cls-1" x="18.63" y="45.37" width="3.56" height="1.61"/><rect class="cls-1" x="24.68" y="45.37" width="3.56" height="1.61"/><rect class="cls-1" x="30.73" y="45.37" width="3.56" height="1.61"/><rect class="cls-1" x="36.78" y="45.37" width="3.56" height="1.61"/><rect class="cls-1" x="42.83" y="45.37" width="3.56" height="1.61"/><rect class="cls-1" x="48.88" y="45.37" width="3.56" height="1.61"/><rect class="cls-1" x="54.93" y="45.37" width="3.56" height="1.61"/><rect class="cls-1" x="62.42" y="45.37" width="3.56" height="1.61"/><rect class="cls-1" x="5.46" y="45.37" width="3.56" height="1.61"/><rect class="cls-1" x="12.42" width="3.56" height="1.61"/><rect class="cls-1" x="18.63" width="3.56" height="1.61"/><rect class="cls-1" x="24.85" width="3.56" height="1.61"/><rect class="cls-1" x="31.06" width="3.56" height="1.61"/><rect class="cls-1" x="37.28" width="3.56" height="1.61"/><rect class="cls-1" x="43.49" width="3.56" height="1.61"/><rect class="cls-1" x="49.7" width="3.56" height="1.61"/><rect class="cls-1" x="55.92" width="3.56" height="1.61"/><rect class="cls-1" x="62.13" width="3.56" height="1.61"/><polygon class="cls-1" points="83.65 0.81 83.39 0.81 83.39 3.82 85 3.82 85 0 83.65 0 83.65 0.81"/><rect class="cls-1" x="83.39" y="7.38" width="1.61" height="3.56"/><rect class="cls-1" x="76.69" y="45.37" width="3.56" height="1.61"/><rect class="cls-1" x="76.52" width="3.56" height="1.61"/><rect class="cls-1" x="69.57" y="45.37" width="3.56" height="1.61"/><rect class="cls-1" x="83.39" y="28.75" width="1.61" height="3.56"/><rect class="cls-1" x="83.39" y="35.87" width="1.61" height="3.56"/><rect class="cls-1" x="83.39" y="14.51" width="1.61" height="3.56"/><rect class="cls-1" x="83.39" y="21.63" width="1.61" height="3.56"/><rect class="cls-1" x="69.4" width="3.56" height="1.61"/></g></g></svg>