<svg xmlns="http://www.w3.org/2000/svg" viewBox="0 0 36.5 194.64"><defs><style>.cls-1{fill:#fff;}</style></defs><g id="Слой_2" data-name="Слой 2"><g id="Слой_1-2" data-name="Слой 1"><polygon class="cls-1" points="13.5 62.6 0 82.64 0 53.04 13.5 33 13.5 62.6"/><polygon class="cls-1" points="36.5 29.6 23 49.64 23 20.04 36.5 0 36.5 29.6"/><polygon class="cls-1" points="13.5 118.6 0 138.64 0 109.04 13.5 89 13.5 118.6"/><polygon class="cls-1" points="36.5 85.6 23 105.64 23 76.04 36.5 56 36.5 85.6"/><polygon class="cls-1" points="13.5 174.6 0 194.64 0 165.04 13.5 145 13.5 174.6"/><polygon class="cls-1" points="36.5 141.6 23 161.64 23 132.04 36.5 112 36.5 141.6"/></g></g></svg>